<svg xmlns="http://www.w3.org/2000/svg" viewBox="0 0 100 100"><defs><style>.cls-1{fill:#fff;}</style></defs><g id="Слой_2" data-name="Слой 2"><g id="Логотип"><path class="cls-1" d="M50,0a50,50,0,1,0,50,50A50,50,0,0,0,50,0ZM80,70.85A10.14,10.14,0,0,1,69.85,81H29.15A10.14,10.14,0,0,1,19,70.85V30.15A10.14,10.14,0,0,1,29.15,20h40.7A10.14,10.14,0,0,1,80,30.15Z"/><circle class="cls-1" cx="49.5" cy="50.5" r="9.5"/><path class="cls-1" d="M66.85,23H32.15A10.14,10.14,0,0,0,22,33.15v34.7A10.14,10.14,0,0,0,32.15,78h34.7A10.14,10.14,0,0,0,77,67.85V33.15A10.14,10.14,0,0,0,66.85,23ZM49.5,62A11.5,11.5,0,1,1,61,50.5,11.5,11.5,0,0,1,49.5,62ZM63,40a4,4,0,1,1,4-4A4,4,0,0,1,63,40Z"/></g></g></svg>